<svg width="100" height="100" viewBox="0 0 100 100" fill="none" xmlns="http://www.w3.org/2000/svg">
<path d="M62.7268 70.4199C75.5414 61.6415 79.6627 45.3767 71.9319 34.0914C64.2011 22.8061 47.5458 20.7739 34.7312 29.5523C21.9166 38.3307 17.7954 54.5955 25.5261 65.8808C33.2569 77.1661 49.9122 79.1983 62.7268 70.4199Z" fill="#5D90FD"/>
<path d="M56.8263 61.7974C64.4115 56.6012 66.9355 47.0971 62.4638 40.5694C57.992 34.0416 48.2179 32.9621 40.6327 38.1582C33.0475 43.3544 30.5235 52.8585 34.9952 59.3862C39.4669 65.914 49.241 66.9935 56.8263 61.7974Z" fill="#FFFCF3"/>
<path d="M53.8415 57.4204C58.7783 54.0386 60.5013 47.97 57.6899 43.866C54.8785 39.762 48.5974 39.1766 43.6606 42.5585C38.7238 45.9403 37.0008 52.0089 39.8121 56.1129C42.6235 60.2169 48.9047 60.8023 53.8415 57.4204Z" fill="#5D90FD"/>
<path d="M51.9609 54.4803C54.8473 52.503 55.8673 48.9732 54.239 46.5962C52.6107 44.2193 48.9507 43.8953 46.0643 45.8726C43.1778 47.8499 42.1579 51.3798 43.7862 53.7567C45.4145 56.1337 49.0744 56.4577 51.9609 54.4803Z" fill="#FFFCF3"/>
<path d="M75.8783 27.9167L46.623 45.6086L49.032 49.592L78.2872 31.9L75.8783 27.9167Z" fill="#FFFCF3"/>
<path d="M54.6299 43.6574L49.3984 51.1111L51.4818 51.7361L82.3151 36.4352L88.4957 27.0139L84.2827 25.7407L54.6299 43.6574Z" fill="#5D90FD"/>
<path d="M53.7963 40.9259L50.6648 45.0463L50.3472 45.4861C50.0861 45.3477 49.8083 45.2428 49.5208 45.1738L49.375 45.1388L50.5269 43.2407L52.7139 40.6018L53.7963 40.9259Z" fill="#5D90FD" stroke="#5D90FD"/>
<path d="M49.0994 45.1621H49.3985L50.5846 43.7555C50.9457 43.327 50.7143 42.6681 50.1643 42.5598C49.9707 42.5216 49.7698 42.563 49.6068 42.6745L44.4347 46.2155C44.3382 46.2816 44.2754 46.3862 44.2624 46.5024C44.2214 46.8714 44.6604 47.0936 44.9336 46.8422L45.0235 46.7594L45.0948 46.6978C45.3856 46.4464 45.7067 46.2326 46.0504 46.0608L46.5976 45.7871L47.0587 45.5916C47.2601 45.506 47.468 45.4349 47.6795 45.3787L47.9124 45.317C48.2994 45.2142 48.6985 45.1621 49.0994 45.1621Z" fill="#5D90FD"/>
</svg>
