<svg width="1197" height="326" viewBox="0 0 1197 326" fill="none" xmlns="http://www.w3.org/2000/svg">
<path d="M215.04 73.536C212.992 69.7813 210.176 66.9227 206.592 64.96C203.008 62.9973 198.827 62.016 194.048 62.016C188.757 62.016 184.064 63.2107 179.968 65.6C175.872 67.9893 172.672 71.4027 170.368 75.84C168.064 80.2773 166.912 85.3973 166.912 91.2C166.912 97.1733 168.064 102.379 170.368 106.816C172.757 111.253 176.043 114.667 180.224 117.056C184.405 119.445 189.269 120.64 194.816 120.64C201.643 120.64 207.232 118.848 211.584 115.264C215.936 111.595 218.795 106.517 220.16 100.032H189.44V86.336H237.824V101.952C236.629 108.181 234.069 113.941 230.144 119.232C226.219 124.523 221.141 128.789 214.912 132.032C208.768 135.189 201.856 136.768 194.176 136.768C185.557 136.768 177.749 134.848 170.752 131.008C163.84 127.083 158.379 121.664 154.368 114.752C150.443 107.84 148.48 99.9893 148.48 91.2C148.48 82.4107 150.443 74.56 154.368 67.648C158.379 60.6507 163.84 55.232 170.752 51.392C177.749 47.4667 185.515 45.504 194.048 45.504C204.117 45.504 212.864 47.9787 220.288 52.928C227.712 57.792 232.832 64.6613 235.648 73.536H215.04ZM269.002 76.096C271.306 72.3413 274.293 69.3973 277.962 67.264C281.717 65.1307 285.983 64.064 290.762 64.064V82.88H286.026C280.394 82.88 276.127 84.2027 273.226 86.848C270.41 89.4933 269.002 94.1013 269.002 100.672V136H251.082V65.088H269.002V76.096ZM334.32 137.152C327.493 137.152 321.349 135.659 315.888 132.672C310.427 129.6 306.117 125.291 302.96 119.744C299.888 114.197 298.352 107.797 298.352 100.544C298.352 93.2907 299.931 86.8907 303.088 81.344C306.331 75.7973 310.725 71.5307 316.272 68.544C321.819 65.472 328.005 63.936 334.832 63.936C341.659 63.936 347.845 65.472 353.392 68.544C358.939 71.5307 363.291 75.7973 366.448 81.344C369.691 86.8907 371.312 93.2907 371.312 100.544C371.312 107.797 369.648 114.197 366.32 119.744C363.077 125.291 358.64 129.6 353.008 132.672C347.461 135.659 341.232 137.152 334.32 137.152ZM334.32 121.536C337.563 121.536 340.592 120.768 343.408 119.232C346.309 117.611 348.613 115.221 350.32 112.064C352.027 108.907 352.88 105.067 352.88 100.544C352.88 93.8027 351.088 88.64 347.504 85.056C344.005 81.3867 339.696 79.552 334.576 79.552C329.456 79.552 325.147 81.3867 321.648 85.056C318.235 88.64 316.528 93.8027 316.528 100.544C316.528 107.285 318.192 112.491 321.52 116.16C324.933 119.744 329.2 121.536 334.32 121.536ZM415.945 137.152C409.118 137.152 402.974 135.659 397.513 132.672C392.052 129.6 387.742 125.291 384.585 119.744C381.513 114.197 379.977 107.797 379.977 100.544C379.977 93.2907 381.556 86.8907 384.713 81.344C387.956 75.7973 392.35 71.5307 397.897 68.544C403.444 65.472 409.63 63.936 416.457 63.936C423.284 63.936 429.47 65.472 435.017 68.544C440.564 71.5307 444.916 75.7973 448.073 81.344C451.316 86.8907 452.937 93.2907 452.937 100.544C452.937 107.797 451.273 114.197 447.945 119.744C444.702 125.291 440.265 129.6 434.633 132.672C429.086 135.659 422.857 137.152 415.945 137.152ZM415.945 121.536C419.188 121.536 422.217 120.768 425.033 119.232C427.934 117.611 430.238 115.221 431.945 112.064C433.652 108.907 434.505 105.067 434.505 100.544C434.505 93.8027 432.713 88.64 429.129 85.056C425.63 81.3867 421.321 79.552 416.201 79.552C411.081 79.552 406.772 81.3867 403.273 85.056C399.86 88.64 398.153 93.8027 398.153 100.544C398.153 107.285 399.817 112.491 403.145 116.16C406.558 119.744 410.825 121.536 415.945 121.536ZM486.946 79.808V114.112C486.946 116.501 487.501 118.251 488.61 119.36C489.805 120.384 491.767 120.896 494.498 120.896H502.818V136H491.554C476.45 136 468.898 128.661 468.898 113.984V79.808H460.45V65.088H468.898V47.552H486.946V65.088H502.818V79.808H486.946ZM555.643 64.064C561.019 64.064 565.798 65.2587 569.979 67.648C574.16 69.952 577.403 73.408 579.707 78.016C582.096 82.5387 583.291 88 583.291 94.4V136H565.371V96.832C565.371 91.2 563.963 86.8907 561.147 83.904C558.331 80.832 554.491 79.296 549.627 79.296C544.678 79.296 540.752 80.832 537.851 83.904C535.035 86.8907 533.627 91.2 533.627 96.832V136H515.707V41.28H533.627V73.92C535.931 70.848 539.003 68.4587 542.843 66.752C546.683 64.96 550.95 64.064 555.643 64.064Z" fill="#3A86FE"/>
<path d="M671.68 276.896C665.451 276.896 659.819 275.829 654.784 273.696C649.835 271.563 645.909 268.491 643.008 264.48C640.107 260.469 638.613 255.733 638.528 250.272H657.728C657.984 253.941 659.264 256.843 661.568 258.976C663.957 261.109 667.2 262.176 671.296 262.176C675.477 262.176 678.763 261.195 681.152 259.232C683.541 257.184 684.736 254.539 684.736 251.296C684.736 248.651 683.925 246.475 682.304 244.768C680.683 243.061 678.635 241.739 676.16 240.8C673.771 239.776 670.443 238.667 666.176 237.472C660.373 235.765 655.637 234.101 651.968 232.48C648.384 230.773 645.269 228.256 642.624 224.928C640.064 221.515 638.784 216.992 638.784 211.36C638.784 206.069 640.107 201.461 642.752 197.536C645.397 193.611 649.109 190.624 653.888 188.576C658.667 186.443 664.128 185.376 670.272 185.376C679.488 185.376 686.955 187.637 692.672 192.16C698.475 196.597 701.675 202.827 702.272 210.848H682.56C682.389 207.776 681.067 205.259 678.592 203.296C676.203 201.248 673.003 200.224 668.992 200.224C665.493 200.224 662.677 201.12 660.544 202.912C658.496 204.704 657.472 207.307 657.472 210.72C657.472 213.109 658.24 215.115 659.776 216.736C661.397 218.272 663.36 219.552 665.664 220.576C668.053 221.515 671.381 222.624 675.648 223.904C681.451 225.611 686.187 227.317 689.856 229.024C693.525 230.731 696.683 233.291 699.328 236.704C701.973 240.117 703.296 244.597 703.296 250.144C703.296 254.923 702.059 259.36 699.584 263.456C697.109 267.552 693.483 270.837 688.704 273.312C683.925 275.701 678.251 276.896 671.68 276.896ZM739.696 219.808V254.112C739.696 256.501 740.251 258.251 741.36 259.36C742.555 260.384 744.517 260.896 747.248 260.896H755.568V276H744.304C729.2 276 721.648 268.661 721.648 253.984V219.808H713.2V205.088H721.648V187.552H739.696V205.088H755.568V219.808H739.696ZM835.401 205.088V276H817.353V267.04C815.049 270.112 812.02 272.544 808.265 274.336C804.596 276.043 800.585 276.896 796.233 276.896C790.686 276.896 785.78 275.744 781.513 273.44C777.246 271.051 773.876 267.595 771.401 263.072C769.012 258.464 767.817 253.003 767.817 246.688V205.088H785.737V244.128C785.737 249.76 787.145 254.112 789.961 257.184C792.777 260.171 796.617 261.664 801.481 261.664C806.43 261.664 810.313 260.171 813.129 257.184C815.945 254.112 817.353 249.76 817.353 244.128V205.088H835.401ZM848.474 240.288C848.474 233.12 849.882 226.763 852.698 221.216C855.599 215.669 859.525 211.403 864.474 208.416C869.423 205.429 874.927 203.936 880.986 203.936C885.594 203.936 889.989 204.96 894.17 207.008C898.351 208.971 901.679 211.616 904.154 214.944V181.28H922.33V276H904.154V265.504C901.935 269.003 898.821 271.819 894.81 273.952C890.799 276.085 886.149 277.152 880.858 277.152C874.885 277.152 869.423 275.616 864.474 272.544C859.525 269.472 855.599 265.163 852.698 259.616C849.882 253.984 848.474 247.541 848.474 240.288ZM904.282 240.544C904.282 236.192 903.429 232.48 901.722 229.408C900.015 226.251 897.711 223.861 894.81 222.24C891.909 220.533 888.794 219.68 885.466 219.68C882.138 219.68 879.066 220.491 876.25 222.112C873.434 223.733 871.13 226.123 869.338 229.28C867.631 232.352 866.778 236.021 866.778 240.288C866.778 244.555 867.631 248.309 869.338 251.552C871.13 254.709 873.434 257.141 876.25 258.848C879.151 260.555 882.223 261.408 885.466 261.408C888.794 261.408 891.909 260.597 894.81 258.976C897.711 257.269 900.015 254.88 901.722 251.808C903.429 248.651 904.282 244.896 904.282 240.544ZM948.92 196.64C945.763 196.64 943.117 195.659 940.984 193.696C938.936 191.648 937.912 189.131 937.912 186.144C937.912 183.157 938.936 180.683 940.984 178.72C943.117 176.672 945.763 175.648 948.92 175.648C952.077 175.648 954.68 176.672 956.728 178.72C958.861 180.683 959.928 183.157 959.928 186.144C959.928 189.131 958.861 191.648 956.728 193.696C954.68 195.659 952.077 196.64 948.92 196.64ZM957.752 205.088V276H939.832V205.088H957.752ZM1006.95 277.152C1000.12 277.152 993.974 275.659 988.513 272.672C983.052 269.6 978.742 265.291 975.585 259.744C972.513 254.197 970.977 247.797 970.977 240.544C970.977 233.291 972.556 226.891 975.713 221.344C978.956 215.797 983.35 211.531 988.897 208.544C994.444 205.472 1000.63 203.936 1007.46 203.936C1014.28 203.936 1020.47 205.472 1026.02 208.544C1031.56 211.531 1035.92 215.797 1039.07 221.344C1042.32 226.891 1043.94 233.291 1043.94 240.544C1043.94 247.797 1042.27 254.197 1038.94 259.744C1035.7 265.291 1031.27 269.6 1025.63 272.672C1020.09 275.659 1013.86 277.152 1006.95 277.152ZM1006.95 261.536C1010.19 261.536 1013.22 260.768 1016.03 259.232C1018.93 257.611 1021.24 255.221 1022.95 252.064C1024.65 248.907 1025.51 245.067 1025.51 240.544C1025.51 233.803 1023.71 228.64 1020.13 225.056C1016.63 221.387 1012.32 219.552 1007.2 219.552C1002.08 219.552 997.772 221.387 994.273 225.056C990.86 228.64 989.153 233.803 989.153 240.544C989.153 247.285 990.817 252.491 994.145 256.16C997.558 259.744 1001.83 261.536 1006.95 261.536Z" fill="#3A86FE"/>
<path d="M554 64H1018C1034.57 64 1048 77.4315 1048 94V136H569.5V88.5L554 64Z" fill="#3A86FE"/>
<path d="M144 185H660H672.5L639.5 204H605L593 270H668L683 271.5L703.5 246V277H174C157.431 277 144 263.569 144 247V185Z" fill="#3A86FE"/>
<path d="M151 204H603C621.225 204 636 218.775 636 237V237C636 255.225 621.225 270 603 270H179C163.536 270 151 257.464 151 242V204Z" fill="#FFFCF3"/>
<path d="M0.0154828 263.098C1.10374 221.246 128.176 183.063 100.961 217.164C73.5 251.573 153.767 258.918 194.102 260.102C232.614 261.232 333.663 202.672 302.5 224.073C265.5 249.483 336 296.573 286.201 302.541C250.174 306.858 231.083 279.588 194.102 281.072C155.641 282.615 139.427 313.434 100.961 312.027C56.8271 310.412 -1.08615 305.463 0.0154828 263.098Z" fill="#3A86FE"/>
<path d="M20.0001 261.573C22.0154 267.018 25.8541 268.886 31.0001 271.573C50.1061 281.552 91.837 241.217 71.5001 234.073C59.6492 229.911 53.3829 238.301 42.5002 244.573C32.6878 250.228 16.0686 250.952 20.0001 261.573Z" fill="#FFFCF3"/>
<mask id="mask0_29_106" style="mask-type:alpha" maskUnits="userSpaceOnUse" x="899" y="0" width="298" height="101">
<path d="M1196.65 51.2455C1196.65 9.38028 1134.67 -20.3468 1090.17 17.1532C1059.41 43.071 1022.67 57.2455 985.666 36.6532C952.111 17.9782 939.342 -11.0719 911.409 14.2988C888.869 34.7706 902.141 119.669 911.409 90.6887C933.166 22.6533 971.061 51.1201 1003.2 69.2196C1034.17 86.6533 1057.7 101.582 1096.04 100.175C1140.03 98.5604 1196.65 104.653 1196.65 51.2455Z" fill="#FFFCF3"/>
</mask>
<g mask="url(#mask0_29_106)">
<path d="M861 -7L1197 -2V136L1052.5 132V99V99C1052.5 77.1848 1034.82 59.5 1013 59.5H861V-7Z" fill="#3A86FE"/>
<path d="M1113.87 39.4172C1110.63 44.2297 1151.32 41.1629 1147.37 45.4172C1121.37 73.4172 1186.67 61.6057 1176 42.8803C1170.17 32.6533 1166.37 28.417 1150.55 25.4476C1139.42 23.3581 1120.21 30.0291 1113.87 39.4172Z" fill="#FFFCF3"/>
</g>
<path d="M1033.66 72.962C1027.83 72.5715 1023.78 80.1351 1023.78 80.1351C1023.78 80.1351 1040.44 101.547 1056.31 97.5367C1071 93.8264 1105.85 76.59 1100.38 59.977C1100.09 59.0849 1099.53 57.7275 1099.53 57.7275C1099.53 57.7275 1086.65 81.7575 1068.08 81.6466C1054.75 81.5669 1044.56 73.6921 1033.66 72.962Z" fill="#FFFCF3"/>
<path d="M136.428 307.938C148.961 316.685 176.943 283.987 176.943 283.987C176.943 283.987 131.76 288.65 118.031 280.606C105.33 273.164 84.7204 273.783 77.1619 289.077C76.756 289.898 77.5503 289.199 77.5503 289.199C77.5503 289.199 89.5044 277.479 104.744 285.346C114.289 290.273 127.774 301.898 136.428 307.938Z" fill="#FFFCF3" stroke="#3A86FE" stroke-width="6"/>
</svg>
