<svg width="30" height="30" viewBox="0 0 30 30" fill="none" xmlns="http://www.w3.org/2000/svg">
<path fill-rule="evenodd" clip-rule="evenodd" d="M21.6667 0C23.8768 0 25.9964 0.877974 27.5592 2.44078C29.122 4.00358 30 6.1232 30 8.33333V21.6667C30 23.8768 29.122 25.9964 27.5592 27.5592C25.9964 29.122 23.8768 30 21.6667 30H8.33333C6.1232 30 4.00358 29.122 2.44078 27.5592C0.877974 25.9964 0 23.8768 0 21.6667V8.33333C0 6.1232 0.877974 4.00358 2.44078 2.44078C4.00358 0.877974 6.1232 0 8.33333 0H21.6667ZM21.6667 3.33333H8.33333C7.00725 3.33333 5.73548 3.86012 4.7978 4.7978C3.86012 5.73548 3.33333 7.00725 3.33333 8.33333V21.6667C3.33333 22.9927 3.86012 24.2645 4.7978 25.2022C5.73548 26.1399 7.00725 26.6667 8.33333 26.6667H21.6667C22.9927 26.6667 24.2645 26.1399 25.2022 25.2022C26.1399 24.2645 26.6667 22.9927 26.6667 21.6667V8.33333C26.6667 7.00725 26.1399 5.73548 25.2022 4.7978C24.2645 3.86012 22.9927 3.33333 21.6667 3.33333ZM15 8.33333C16.7681 8.33333 18.4638 9.03571 19.714 10.286C20.9643 11.5362 21.6667 13.2319 21.6667 15C21.6667 16.7681 20.9643 18.4638 19.714 19.714C18.4638 20.9643 16.7681 21.6667 15 21.6667C13.2319 21.6667 11.5362 20.9643 10.286 19.714C9.03571 18.4638 8.33333 16.7681 8.33333 15C8.33333 13.2319 9.03571 11.5362 10.286 10.286C11.5362 9.03571 13.2319 8.33333 15 8.33333ZM15 11.6667C14.1159 11.6667 13.2681 12.0179 12.643 12.643C12.0179 13.2681 11.6667 14.1159 11.6667 15C11.6667 15.8841 12.0179 16.7319 12.643 17.357C13.2681 17.9821 14.1159 18.3333 15 18.3333C15.8841 18.3333 16.7319 17.9821 17.357 17.357C17.9821 16.7319 18.3333 15.8841 18.3333 15C18.3333 14.1159 17.9821 13.2681 17.357 12.643C16.7319 12.0179 15.8841 11.6667 15 11.6667ZM22.5 5.83333C22.942 5.83333 23.366 6.00893 23.6785 6.32149C23.9911 6.63405 24.1667 7.05797 24.1667 7.5C24.1667 7.94203 23.9911 8.36595 23.6785 8.67851C23.366 8.99107 22.942 9.16667 22.5 9.16667C22.058 9.16667 21.634 8.99107 21.3215 8.67851C21.0089 8.36595 20.8333 7.94203 20.8333 7.5C20.8333 7.05797 21.0089 6.63405 21.3215 6.32149C21.634 6.00893 22.058 5.83333 22.5 5.83333Z" fill="#3A86FE"/>
</svg>
